<svg id="Layer_1" data-name="Layer 1" xmlns="http://www.w3.org/2000/svg" viewBox="0 0 66.77 56.8">
  <title>a2</title>
  <path d="M45,20.7c-10.64,16.77-9.9,34.65-1,42.5,1.62,1.43,6,4.73,14.5,4.75" transform="translate(-36.85 -18.7)" style="fill: none;stroke: #16a249;stroke-miterlimit: 10;stroke-width: 0.5571878552436829px"/>
  <path d="M45.83,23.7c3.22,0,3.23-5,0-5s-3.22,5,0,5Z" transform="translate(-36.85 -18.7)" style="fill: #16a249"/>
  <path d="M58,68a7.07,7.07,0,0,0-1.59-.88,11.15,11.15,0,0,1-2.51-1,7.11,7.11,0,0,1-1.06-1" transform="translate(-36.85 -18.7)" style="fill: none;stroke: #16a249;stroke-miterlimit: 10;stroke-width: 1.0201832575542238px"/>
  <path d="M58.44,67.66a2.11,2.11,0,0,1-.9.72,3.75,3.75,0,0,1-.67.22l-2.79.74a1.86,1.86,0,0,0-.55.22.83.83,0,0,0-.33.47" transform="translate(-36.85 -18.7)" style="fill: none;stroke: #16a249;stroke-miterlimit: 10"/>
  <rect x="24.27" y="41.38" width="42.25" height="15.17" style="fill: none;stroke: #0a8c44;stroke-miterlimit: 10;stroke-width: 0.5px"/>
</svg>
