<svg id="Layer_1" data-name="Layer 1" xmlns="http://www.w3.org/2000/svg" viewBox="0 0 1321.88 401.12">
  <title>a3</title>
  <path d="M.75,0H1318.29s17,312.91-28.54,326.18S1169.92,97.66,1169.92,97.66,1153,277.82,1122.66,277.82,1121,54,1033.22,91s-1.69,237.06-77.64,214.3S920.14,109,829,114.73,765.71,426.22,685.55,381.18,697.36,44.56,596.1,121.36,584.28,453.25,494.83,391.61,429,140.33,375,149.81,353.07,422,290.62,386.87,263.62,202,211.3,163.09s-133.33,0-109.7,41.72,16.87,126.11-48.95,89.13S.75,0,.75,0Z" transform="translate(0.48)" style="fill: #231f20"/>
</svg>
