<svg id="Layer_1" data-name="Layer 1" xmlns="http://www.w3.org/2000/svg" viewBox="0 0 38.9999 38.99994">
  <title>a2</title>
  <polygon points="38.606 19.5 33.012 25.094 33.012 33.012 25.094 33.012 19.5 38.606 13.906 33.012 5.988 33.012 5.988 25.094 0.394 19.5 5.988 13.906 5.988 5.988 13.906 5.988 19.5 0.394 25.094 5.988 33.012 5.988 33.012 13.906 38.606 19.5" style="fill: #fff200;stroke: #231f20;stroke-miterlimit: 10;stroke-width: 0.5571878552436829px"/>
  <polygon points="31.013 19.5 27.642 22.871 27.642 27.642 22.871 27.642 19.5 31.013 16.129 27.642 11.358 27.642 11.358 22.871 7.987 19.5 11.358 16.129 11.358 11.358 16.129 11.358 19.5 7.987 22.871 11.358 27.642 11.358 27.642 16.129 31.013 19.5" style="fill: #ed1c24;stroke: #231f20;stroke-miterlimit: 10;stroke-width: 0.335741057314749px"/>
</svg>
